<?xml version="1.0" encoding="UTF-8"?>
<svg width="50px" height="50px" viewBox="0 0 50 50" version="1.1" xmlns="http://www.w3.org/2000/svg" xmlns:xlink="http://www.w3.org/1999/xlink">
    <!-- Generator: Sketch 50.2 (55047) - http://www.bohemiancoding.com/sketch -->
    <title>icon</title>
    <desc>Created with Sketch.</desc>
    <defs></defs>
    <g id="Page-1" stroke="none" stroke-width="1" fill="none" fill-rule="evenodd">
        <g id="icon" fill-rule="nonzero">
            <rect id="Rectangle-path" fill="#EEEEFF" x="0" y="0" width="50" height="50" rx="5"></rect>
            <path d="M36.9142072,24.0833333 L34.8333465,24.0833333 L34.8333465,21.9583333 C34.8333465,20.7847135 33.9006202,19.8333333 32.7500119,19.8333333 L25.805563,19.8333333 L23.0277835,17 L16.0833346,17 C14.9327263,17 14,17.9513802 14,19.125 L14,31.875 C14,33.0486198 14.9327263,34 16.0833346,34 L33.4444567,34 C34.1627684,33.9999933 34.8304123,33.6225543 35.2111245,33.00125 L38.6808316,27.3345833 C39.5466307,25.9215911 38.5489739,24.0833333 36.9142072,24.0833333 Z M16.3437515,19.125 L22.1648489,19.125 L24.9426285,21.9583333 L32.489595,21.9583333 C32.6334193,21.9583333 32.7500119,22.0772577 32.7500119,22.2239583 L32.7500119,24.0833333 L20.5972264,24.0833333 C19.867276,24.0833359 19.1905685,24.4730137 18.8134579,25.1105052 L16.0833346,29.7256068 L16.0833346,19.3903151 C16.0833346,19.3198954 16.110781,19.2523645 16.1596274,19.2025993 C16.2084738,19.1528342 16.2747126,19.1249177 16.3437515,19.125 Z M33.4444567,31.875 L17.125002,31.875 L20.4771742,26.2083333 L36.9166812,26.2083333 L33.4444567,31.875 Z" id="Shape" fill="#071FCB"></path>
        </g>
    </g>
</svg>