<?xml version="1.0" encoding="UTF-8"?>
<svg width="50px" height="50px" viewBox="0 0 50 50" version="1.1" xmlns="http://www.w3.org/2000/svg" xmlns:xlink="http://www.w3.org/1999/xlink">
    <!-- Generator: Sketch 50.2 (55047) - http://www.bohemiancoding.com/sketch -->
    <title>Group</title>
    <desc>Created with Sketch.</desc>
    <defs></defs>
    <g id="Page-1" stroke="none" stroke-width="1" fill="none" fill-rule="evenodd">
        <g id="Group" fill-rule="nonzero">
            <g id="icon" fill="#EEEEFF">
                <rect id="Rectangle-path" x="0" y="0" width="50" height="50" rx="5"></rect>
            </g>
            <g id="book-solid-(1)" transform="translate(15.000000, 14.000000)" fill="#071FCB">
                <path d="M20,16.171875 L20,1.078125 C20,0.480664062 19.5223214,0 18.9285714,0 L4.28571429,0 C1.91964286,0 0,1.93164062 0,4.3125 L0,18.6875 C0,21.0683594 1.91964286,23 4.28571429,23 L18.9285714,23 C19.5223214,23 20,22.5193359 20,21.921875 L20,21.203125 C20,20.8662109 19.84375,20.5607422 19.6026786,20.3630859 C19.4151786,19.6712891 19.4151786,17.6992187 19.6026786,17.0074219 C19.84375,16.8142578 20,16.5087891 20,16.171875 Z M5.71428571,6.01953125 C5.71428571,5.87128906 5.83482143,5.75 5.98214286,5.75 L15.4464286,5.75 C15.59375,5.75 15.7142857,5.87128906 15.7142857,6.01953125 L15.7142857,6.91796875 C15.7142857,7.06621094 15.59375,7.1875 15.4464286,7.1875 L5.98214286,7.1875 C5.83482143,7.1875 5.71428571,7.06621094 5.71428571,6.91796875 L5.71428571,6.01953125 Z M5.71428571,8.89453125 C5.71428571,8.74628906 5.83482143,8.625 5.98214286,8.625 L15.4464286,8.625 C15.59375,8.625 15.7142857,8.74628906 15.7142857,8.89453125 L15.7142857,9.79296875 C15.7142857,9.94121094 15.59375,10.0625 15.4464286,10.0625 L5.98214286,10.0625 C5.83482143,10.0625 5.71428571,9.94121094 5.71428571,9.79296875 L5.71428571,8.89453125 Z M17.0267857,20.125 L4.28571429,20.125 C3.49553571,20.125 2.85714286,19.4826172 2.85714286,18.6875 C2.85714286,17.896875 3.5,17.25 4.28571429,17.25 L17.0267857,17.25 C16.9419643,18.0181641 16.9419643,19.3568359 17.0267857,20.125 Z" id="Shape"></path>
            </g>
        </g>
    </g>
</svg>