<?xml version="1.0" encoding="UTF-8"?>
<svg width="50px" height="50px" viewBox="0 0 50 50" version="1.1" xmlns="http://www.w3.org/2000/svg" xmlns:xlink="http://www.w3.org/1999/xlink">
    <!-- Generator: Sketch 55.1 (78136) - https://sketchapp.com -->
    <title>icon</title>
    <desc>Created with Sketch.</desc>
    <g id="Page-1" stroke="none" stroke-width="1" fill="none" fill-rule="evenodd">
        <g id="icon" fill-rule="nonzero">
            <rect id="Rectangle-path" fill="#EBFFFD" x="0" y="0" width="50" height="50" rx="5"></rect>
            <g id="code-branch-solid-(2)" transform="translate(18.000000, 15.000000)" fill="#55C2B8">
                <path d="M15,5.625 C15,3.8984375 13.6015625,2.5 11.875,2.5 C10.1484375,2.5 8.75,3.8984375 8.75,5.625 C8.75,7.046875 9.69921875,8.24609375 10.9960938,8.625 C10.9726562,9.25390625 10.8320312,9.73828125 10.5664062,10.0664062 C9.96484375,10.8164062 8.640625,10.9414062 7.23828125,11.0703125 C6.13671875,11.171875 4.99609375,11.28125 4.0625,11.7304687 L4.0625,6.10546875 C5.33203125,5.70703125 6.25,4.5234375 6.25,3.125 C6.25,1.3984375 4.8515625,-4.26325641e-14 3.125,-4.26325641e-14 C1.3984375,-4.26325641e-14 0,1.3984375 0,3.125 C0,4.5234375 0.91796875,5.70703125 2.1875,6.10546875 L2.1875,13.890625 C0.91796875,14.2929687 0,15.4765625 0,16.875 C0,18.6015625 1.3984375,20 3.125,20 C4.8515625,20 6.25,18.6015625 6.25,16.875 C6.25,15.546875 5.421875,14.4101562 4.25,13.9609375 C4.37109375,13.7578125 4.5546875,13.578125 4.83203125,13.4375 C5.46484375,13.1171875 6.41015625,13.03125 7.4140625,12.9375 C9.0625,12.7851562 10.9296875,12.609375 12.03125,11.2421875 C12.578125,10.5625 12.8554688,9.6875 12.875,8.58984375 C14.109375,8.16796875 15,7 15,5.625 Z M3.125,2.5 C3.46875,2.5 3.75,2.78125 3.75,3.125 C3.75,3.46875 3.46875,3.75 3.125,3.75 C2.78125,3.75 2.5,3.46875 2.5,3.125 C2.5,2.78125 2.78125,2.5 3.125,2.5 Z M3.125,17.5 C2.78125,17.5 2.5,17.21875 2.5,16.875 C2.5,16.53125 2.78125,16.25 3.125,16.25 C3.46875,16.25 3.75,16.53125 3.75,16.875 C3.75,17.21875 3.46875,17.5 3.125,17.5 Z M11.875,5 C12.21875,5 12.5,5.28125 12.5,5.625 C12.5,5.96875 12.21875,6.25 11.875,6.25 C11.53125,6.25 11.25,5.96875 11.25,5.625 C11.25,5.28125 11.53125,5 11.875,5 Z" id="Shape"></path>
            </g>
        </g>
    </g>
</svg>