<?xml version="1.0" encoding="UTF-8"?>
<svg width="50px" height="50px" viewBox="0 0 50 50" version="1.1" xmlns="http://www.w3.org/2000/svg" xmlns:xlink="http://www.w3.org/1999/xlink">
    <!-- Generator: Sketch 52.2 (67145) - http://www.bohemiancoding.com/sketch -->
    <title>Untitled 3</title>
    <desc>Created with Sketch.</desc>
    <g id="Page-1" stroke="none" stroke-width="1" fill="none" fill-rule="evenodd">
        <g id="Group-2">
            <g id="Group" fill="#F7F9FA">
                <g id="pdf-24">
                    <rect id="Rectangle" x="0" y="0" width="50" height="50" rx="5"></rect>
                </g>
            </g>
            <g id="file-video-regular" transform="translate(18.000000, 15.000000)" fill="#637282" fill-rule="nonzero">
                <g id="file-archive-regular">
                    <path d="M14.4508203,3.82582031 L11.1741797,0.549179688 C10.822551,0.197548381 10.3456393,2.60029848e-06 9.84835938,0 L1.875,0 C0.839453125,2.08166817e-16 0,0.839453125 0,1.875 L0,18.125 C0,19.1605469 0.839453125,20 1.875,20 L13.125,20 C14.1605469,20 15,19.1605469 15,18.125 L15,5.15164063 C14.9999974,4.6543607 14.8024516,4.17744902 14.4508203,3.82582031 Z M10,2.02664063 L12.9733594,5 L10,5 L10,2.02664063 Z M13.125,18.125 L1.875,18.125 L1.875,1.875 L4.98882813,1.875 L4.98882813,2.5 L6.23882813,2.5 L6.23882813,1.875 L8.125,1.875 L8.125,5.9375 C8.125,6.45527344 8.54472656,6.875 9.0625,6.875 L13.125,6.875 L13.125,18.125 Z M7.51054688,3.75 L6.26054688,3.75 L6.26054688,2.5 L7.51054688,2.5 L7.51054688,3.75 Z M6.26054688,3.75 L6.26054688,5 L5.01054688,5 L5.01054688,3.75 L6.26054688,3.75 Z M6.26054688,6.25 L6.26054688,7.5 L5.01054688,7.5 L5.01054688,6.25 L6.26054688,6.25 Z M7.51054688,6.25 L6.26054688,6.25 L6.26054688,5 L7.51054688,5 L7.51054688,6.25 Z M7.58511719,10.3780469 C7.54179034,10.1583674 7.34914575,10.0000038 7.12523438,10 L6.26054688,10 L6.26054688,8.75 L5.01054688,8.75 L5.01054688,10 L4.24140625,13.7932031 C3.98394531,15.0629297 4.95445313,16.25 6.25,16.25 C7.54109375,16.25 8.51058594,15.070625 8.26078125,13.8039063 L7.58511719,10.3780469 Z M6.26054688,15.2372266 C5.560625,15.2372266 4.99320313,14.764375 4.99320313,14.1811328 C4.99320313,13.5978516 5.56058594,13.1250391 6.26054688,13.1250391 C6.96050781,13.1250391 7.52789063,13.5978906 7.52789063,14.1811328 C7.52789063,14.764375 6.96046875,15.2372266 6.26054688,15.2372266 Z M7.51054688,8.75 L6.26054688,8.75 L6.26054688,7.5 L7.51054688,7.5 L7.51054688,8.75 Z" id="Shape"></path>
                </g>
            </g>
        </g>
    </g>
</svg>