<?xml version="1.0" encoding="UTF-8"?>
<svg width="50px" height="50px" viewBox="0 0 50 50" version="1.1" xmlns="http://www.w3.org/2000/svg" xmlns:xlink="http://www.w3.org/1999/xlink">
    <!-- Generator: Sketch 52.2 (67145) - http://www.bohemiancoding.com/sketch -->
    <title>Untitled 3</title>
    <desc>Created with Sketch.</desc>
    <g id="Page-1" stroke="none" stroke-width="1" fill="none" fill-rule="evenodd">
        <g id="Group-2">
            <g id="Group" fill="#F7F9FA">
                <g id="pdf-24">
                    <rect id="Rectangle" x="0" y="0" width="50" height="50" rx="5"></rect>
                </g>
            </g>
            <g id="file-invoice-solid" transform="translate(17.000000, 15.000000)" fill="#637282" fill-rule="nonzero">
                <path d="M11.25,10 L3.75,10 L3.75,12.5 L11.25,12.5 L11.25,10 Z M14.7265625,4.1015625 L10.9023438,0.2734375 C10.7265625,0.09765625 10.4882812,0 10.2382812,0 L10,0 L10,5 L15,5 L15,4.76171875 C15,4.515625 14.9023438,4.27734375 14.7265625,4.1015625 Z M8.75,5.3125 L8.75,0 L0.9375,0 C0.41796875,0 0,0.41796875 0,0.9375 L0,19.0625 C0,19.5820312 0.41796875,20 0.9375,20 L14.0625,20 C14.5820312,20 15,19.5820312 15,19.0625 L15,6.25 L9.6875,6.25 C9.171875,6.25 8.75,5.828125 8.75,5.3125 Z M2.5,2.8125 C2.5,2.63984375 2.63984375,2.5 2.8125,2.5 L5.9375,2.5 C6.11015625,2.5 6.25,2.63984375 6.25,2.8125 L6.25,3.4375 C6.25,3.61015625 6.11015625,3.75 5.9375,3.75 L2.8125,3.75 C2.63984375,3.75 2.5,3.61015625 2.5,3.4375 L2.5,2.8125 Z M2.5,5.3125 C2.5,5.13984375 2.63984375,5 2.8125,5 L5.9375,5 C6.11015625,5 6.25,5.13984375 6.25,5.3125 L6.25,5.9375 C6.25,6.11015625 6.11015625,6.25 5.9375,6.25 L2.8125,6.25 C2.63984375,6.25 2.5,6.11015625 2.5,5.9375 L2.5,5.3125 Z M12.5,17.1875 C12.5,17.3601562 12.3601563,17.5 12.1875,17.5 L9.0625,17.5 C8.88984375,17.5 8.75,17.3601562 8.75,17.1875 L8.75,16.5625 C8.75,16.3898438 8.88984375,16.25 9.0625,16.25 L12.1875,16.25 C12.3601563,16.25 12.5,16.3898438 12.5,16.5625 L12.5,17.1875 Z M12.5,9.375 L12.5,13.125 C12.5,13.4703125 12.2203125,13.75 11.875,13.75 L3.125,13.75 C2.7796875,13.75 2.5,13.4703125 2.5,13.125 L2.5,9.375 C2.5,9.0296875 2.7796875,8.75 3.125,8.75 L11.875,8.75 C12.2203125,8.75 12.5,9.0296875 12.5,9.375 Z" id="Shape"></path>
            </g>
        </g>
    </g>
</svg>