<?xml version="1.0" encoding="UTF-8"?>
<svg width="50px" height="50px" viewBox="0 0 50 50" version="1.1" xmlns="http://www.w3.org/2000/svg" xmlns:xlink="http://www.w3.org/1999/xlink">
    <!-- Generator: Sketch 52.1 (67048) - http://www.bohemiancoding.com/sketch -->
    <title>Untitled 3</title>
    <desc>Created with Sketch.</desc>
    <g id="Page-1" stroke="none" stroke-width="1" fill="none" fill-rule="evenodd">
        <g id="pdf-24">
            <rect id="Rectangle" fill="#F7F9FA" x="0" y="0" width="50" height="50" rx="5"></rect>
            <g id="file-pdf-regular" transform="translate(18.000000, 15.000000)" fill="#637282" fill-rule="nonzero">
                <g id="file-image-regular">
                    <path d="M14.4492188,3.82066277 L11.171875,0.549707602 C10.8203125,0.198830409 10.34375,0 9.84765625,0 L1.875,0 C0.83984375,0.00389863548 0,0.842105263 0,1.87524366 L0,18.0935673 C0,19.1267057 0.83984375,19.9649123 1.875,19.9649123 L13.125,19.9649123 C14.1601562,19.9649123 15,19.1267057 15,18.0935673 L15,5.14619883 C15,4.65107212 14.8007812,4.17153996 14.4492188,3.82066277 Z M12.9726562,4.99415205 L10,4.99415205 L10,2.02729045 L12.9726562,4.99415205 Z M1.875,18.0935673 L1.875,1.87524366 L8.125,1.87524366 L8.125,5.92982456 C8.125,6.44834308 8.54296875,6.86549708 9.0625,6.86549708 L13.125,6.86549708 L13.125,18.0935673 L1.875,18.0935673 Z M3.125,16.2222222 L11.875,16.2222222 L11.875,11.2319688 L10.9570312,10.3157895 C10.7734375,10.1325536 10.4765625,10.1325536 10.2929688,10.3157895 L6.875,13.7270955 L5.33203125,12.1871345 C5.1484375,12.0038986 4.8515625,12.0038986 4.66796875,12.1871345 L3.125,13.7270955 L3.125,16.2222222 Z M5,6.86549708 C3.96484375,6.86549708 3.125,7.7037037 3.125,8.73684211 C3.125,9.76998051 3.96484375,10.6081871 5,10.6081871 C6.03515625,10.6081871 6.875,9.76998051 6.875,8.73684211 C6.875,7.7037037 6.03515625,6.86549708 5,6.86549708 Z" id="Shape"></path>
                </g>
            </g>
        </g>
    </g>
</svg>
