<?xml version="1.0" encoding="UTF-8"?>
<svg width="50px" height="50px" viewBox="0 0 50 50" version="1.1" xmlns="http://www.w3.org/2000/svg" xmlns:xlink="http://www.w3.org/1999/xlink">
    <!-- Generator: Sketch 52.1 (67048) - http://www.bohemiancoding.com/sketch -->
    <title>Untitled 3</title>
    <desc>Created with Sketch.</desc>
    <g id="Page-1" stroke="none" stroke-width="1" fill="none" fill-rule="evenodd">
        <g id="Group">
            <g id="pdf-24" fill="#F7F9FA">
                <rect id="Rectangle" x="0" y="0" width="50" height="50" rx="5"></rect>
            </g>
            <g id="file-regular" transform="translate(17.000000, 15.000000)" fill="#637282" fill-rule="nonzero">
                <path d="M14.4492188,3.82066277 L11.171875,0.549707602 C10.8203125,0.198830409 10.34375,0 9.84765625,0 L1.875,0 C0.83984375,0.00389863548 0,0.842105263 0,1.87524366 L0,18.0935673 C0,19.1267057 0.83984375,19.9649123 1.875,19.9649123 L13.125,19.9649123 C14.1601562,19.9649123 15,19.1267057 15,18.0935673 L15,5.14619883 C15,4.65107212 14.8007812,4.17153996 14.4492188,3.82066277 Z M12.9726562,4.99415205 L10,4.99415205 L10,2.02729045 L12.9726562,4.99415205 Z M1.875,18.0935673 L1.875,1.87524366 L8.125,1.87524366 L8.125,5.92982456 C8.125,6.44834308 8.54296875,6.86549708 9.0625,6.86549708 L13.125,6.86549708 L13.125,18.0935673 L1.875,18.0935673 Z" id="Shape"></path>
            </g>
        </g>
    </g>
</svg>