<?xml version="1.0" encoding="UTF-8"?>
<svg width="50px" height="50px" viewBox="0 0 50 50" version="1.1" xmlns="http://www.w3.org/2000/svg" xmlns:xlink="http://www.w3.org/1999/xlink">
    <!-- Generator: Sketch 52.1 (67048) - http://www.bohemiancoding.com/sketch -->
    <title>Untitled 3</title>
    <desc>Created with Sketch.</desc>
    <g id="Page-1" stroke="none" stroke-width="1" fill="none" fill-rule="evenodd">
        <g id="pdf-24" fill="#F7F9FA">
            <rect id="Rectangle" x="0" y="0" width="50" height="50" rx="5"></rect>
        </g>
        <g id="file-alt-regular-(2)" transform="translate(17.000000, 15.000000)" fill="#637282" fill-rule="nonzero">
            <g id="file-code-regular">
                <path d="M14.4508203,3.82582031 L11.1741797,0.549179688 C10.822551,0.197548381 10.3456393,2.60029848e-06 9.84835937,0 L1.875,0 C0.839453125,2.08166817e-16 0,0.839453125 0,1.875 L0,18.125 C0,19.1605469 0.839453125,20 1.875,20 L13.125,20 C14.1605469,20 15,19.1605469 15,18.125 L15,5.15164063 C14.9999974,4.6543607 14.8024516,4.17744902 14.4508203,3.82582031 Z M12.9733594,5 L10,5 L10,2.02664063 L12.9733594,5 Z M1.875,18.125 L1.875,1.875 L8.125,1.875 L8.125,5.9375 C8.125,6.45527344 8.54472656,6.875 9.0625,6.875 L13.125,6.875 L13.125,18.125 L1.875,18.125 Z M5.84675781,13.6283203 L4.56460937,12.5 L5.84671875,11.3716797 C5.91661853,11.3102461 5.95859932,11.223079 5.96305404,11.1301262 C5.96750877,11.0371734 5.93405612,10.9463912 5.87035156,10.8785547 L5.19054688,10.1533984 C5.05835938,10.0122656 4.84039063,10.0103516 4.7046875,10.1377344 L2.45234375,12.2492187 C2.30769531,12.3849219 2.30765625,12.6151172 2.45238281,12.7507812 L4.7046875,14.8623047 C4.76819525,14.9221973 4.85223675,14.9554812 4.93953125,14.9553125 C5.03469943,14.9556371 5.12568981,14.9162508 5.19058594,14.8466406 L5.87039063,14.1215234 C5.93409947,14.0536736 5.96755386,13.9628788 5.96309924,13.8699134 C5.95864461,13.7769479 5.9166622,13.6897678 5.84675781,13.6283203 Z M9.13910156,8.63417969 L8.1859375,8.35746094 C8.09837909,8.33199462 8.00428863,8.34237795 7.9243902,8.38632392 C7.84449176,8.4302699 7.78533908,8.50417381 7.75996094,8.59175781 L5.6265625,15.9398828 C5.57371094,16.1219141 5.67882812,16.3130078 5.86085937,16.3658594 L6.81410156,16.6425781 C6.99691406,16.6955078 7.18742187,16.5896875 7.24007812,16.4082812 L9.37335937,9.06015625 C9.42625,8.878125 9.32113281,8.68703125 9.13910156,8.63417969 Z M12.5476172,12.2492187 L10.2953516,10.1376953 C10.1576172,10.0085156 9.93992187,10.0140625 9.80945312,10.1533594 L9.12964844,10.8784766 C9.06595205,10.9463247 9.03250547,11.0371109 9.03695998,11.1300665 C9.04141449,11.2230222 9.08338896,11.3101941 9.15328125,11.3716406 L10.4353906,12.5 L9.15328125,13.6283203 C9.08338147,13.6897539 9.04140068,13.776921 9.03694596,13.8698738 C9.03249123,13.9628266 9.06594388,14.0536088 9.12964844,14.1214453 L9.80945312,14.8466016 C9.87179245,14.9131437 9.95802248,14.9521815 10.0491565,14.9551194 C10.1402905,14.9580573 10.2288558,14.9246544 10.2953516,14.8622656 L10.2953125,14.8622656 L12.5476563,12.7507422 C12.6923047,12.6150781 12.6923047,12.3848828 12.5476172,12.2492188 Z" id="Shape"></path>
            </g>
        </g>
    </g>
</svg>