<?xml version="1.0" encoding="UTF-8"?>
<svg width="50px" height="50px" viewBox="0 0 50 50" version="1.1" xmlns="http://www.w3.org/2000/svg" xmlns:xlink="http://www.w3.org/1999/xlink">
    <!-- Generator: Sketch 52.1 (67048) - http://www.bohemiancoding.com/sketch -->
    <title>Untitled 3</title>
    <desc>Created with Sketch.</desc>
    <g id="Page-1" stroke="none" stroke-width="1" fill="none" fill-rule="evenodd">
        <g id="pdf-24" fill="#F7F9FA">
            <rect id="Rectangle" x="0" y="0" width="50" height="50" rx="5"></rect>
        </g>
        <g id="file-audio-regular" transform="translate(17.000000, 15.000000)" fill="#637282" fill-rule="nonzero">
            <path d="M14.4508203,3.82582031 L11.1741797,0.549179688 C10.822551,0.197548381 10.3456393,2.60029848e-06 9.84835937,0 L1.875,0 C0.839453125,2.08166817e-16 0,0.839453125 0,1.875 L0,18.125 C0,19.1605469 0.839453125,20 1.875,20 L13.125,20 C14.1605469,20 15,19.1605469 15,18.125 L15,5.15164063 C14.9999974,4.6543607 14.8024516,4.17744902 14.4508203,3.82582031 Z M12.9733594,5 L10,5 L10,2.02664063 L12.9733594,5 Z M1.875,18.125 L1.875,1.875 L8.125,1.875 L8.125,5.9375 C8.125,6.45527344 8.54472656,6.875 9.0625,6.875 L13.125,6.875 L13.125,18.125 L1.875,18.125 Z M7.5,15.1553125 C7.5,15.5729297 6.99507813,15.7820703 6.69980469,15.4867578 L5.3125,14.0814844 L4.21875,14.0814844 C3.95988281,14.0814844 3.75,13.8716016 3.75,13.6127344 L3.75,11.4252344 C3.75,11.1663672 3.95988281,10.9564844 4.21875,10.9564844 L5.3125,10.9564844 L6.69980469,9.51324219 C6.99511719,9.21792969 7.5,9.42707031 7.5,9.8446875 L7.5,15.1553125 Z M9.10941406,13.3142969 C9.46296875,12.9511328 9.46332031,12.3716016 9.10945312,12.0080859 C8.24425781,11.1193359 9.58738281,9.81097656 10.4530078,10.7002344 C11.5154297,11.7916406 11.5159766,13.5300781 10.4530469,14.6221484 C9.60175781,15.4966016 8.22855469,14.2192187 9.10941406,13.3142969 Z" id="Shape"></path>
        </g>
    </g>
</svg>