<?xml version="1.0" encoding="UTF-8"?>
<svg width="50px" height="50px" viewBox="0 0 50 50" version="1.1" xmlns="http://www.w3.org/2000/svg" xmlns:xlink="http://www.w3.org/1999/xlink">
    <!-- Generator: Sketch 52.1 (67048) - http://www.bohemiancoding.com/sketch -->
    <title>Untitled 3</title>
    <desc>Created with Sketch.</desc>
    <g id="Page-1" stroke="none" stroke-width="1" fill="none" fill-rule="evenodd">
        <g id="pdf-24">
            <rect id="Rectangle" fill="#F7F9FA" x="0" y="0" width="50" height="50" rx="5"></rect>
            <g id="file-pdf-regular" transform="translate(18.000000, 15.000000)" fill="#637282" fill-rule="nonzero">
                <path d="M14.4492188,3.85575048 L11.171875,0.584795321 C10.8203125,0.233918129 10.34375,0.0350877194 9.84765625,0.0350877194 L1.875,0.0350877194 C0.83984375,0.0389863548 0,0.877192983 0,1.91033138 L0,18.128655 C0,19.1617934 0.83984375,20 1.875,20 L13.125,20 C14.1601563,20 15,19.1617934 15,18.128655 L15,5.18128654 C15,4.68615985 14.8007813,4.20662769 14.4492188,3.85575048 Z M12.9726563,5.02923977 L10,5.02923977 L10,2.06237817 L12.9726563,5.02923977 Z M1.875,18.128655 L1.875,1.91033138 L8.125,1.91033138 L8.125,5.96491227 C8.125,6.48343079 8.54296875,6.90058479 9.0625,6.90058479 L13.125,6.90058479 L13.125,18.128655 L1.875,18.128655 Z M11.6484375,12.5263158 C11.171875,12.0584795 9.8125,12.1871345 9.1328125,12.2729045 C8.4609375,11.8635477 8.01171875,11.2982456 7.6953125,10.4678362 C7.84765625,9.84015594 8.08984375,8.88499025 7.90625,8.2846004 C7.7421875,7.2631579 6.4296875,7.36452242 6.2421875,8.0545809 C6.0703125,8.68226121 6.2265625,9.55555556 6.515625,10.6705653 C6.125,11.6023392 5.54296875,12.8538012 5.1328125,13.5711501 C4.3515625,13.9727095 3.296875,14.5925926 3.140625,15.3723197 C3.01171875,15.9883041 4.15625,17.5243665 6.11328125,14.1559454 C6.98828125,13.8674464 7.94140625,13.5126706 8.78515625,13.3723197 C9.5234375,13.7699805 10.3867188,14.0350877 10.9648438,14.0350877 C11.9609375,14.0350877 12.0585938,12.9356725 11.6484375,12.5263158 Z M3.91015625,15.5594542 C4.109375,15.0253411 4.8671875,14.4093567 5.09765625,14.1949318 C4.35546875,15.3762183 3.91015625,15.5867446 3.91015625,15.5594542 Z M7.09765625,8.12865498 C7.38671875,8.12865498 7.359375,9.38011696 7.16796875,9.71929825 C6.99609375,9.17738792 7,8.12865498 7.09765625,8.12865498 Z M6.14453125,13.454191 C6.5234375,12.7953216 6.84765625,12.0116959 7.109375,11.3216374 C7.43359375,11.9103314 7.84765625,12.3820663 8.28515625,12.705653 C7.47265625,12.8732944 6.765625,13.2163743 6.14453125,13.454191 Z M11.2851562,13.2592592 C11.2851562,13.2592592 11.0898438,13.4931774 9.828125,12.9551657 C11.1992188,12.8538012 11.4257812,13.165692 11.2851562,13.2592592 Z" id="Shape"></path>
            </g>
        </g>
    </g>
</svg>