<?xml version="1.0" encoding="UTF-8"?>
<svg width="24px" height="24px" viewBox="0 0 24 24" version="1.1" xmlns="http://www.w3.org/2000/svg" xmlns:xlink="http://www.w3.org/1999/xlink">
    <!-- Generator: Sketch 52.1 (67048) - http://www.bohemiancoding.com/sketch -->
    <title>Untitled</title>
    <desc>Created with Sketch.</desc>
    <g id="Page-1" stroke="none" stroke-width="1" fill="none" fill-rule="evenodd">
        <g id="pdf-24">
            <rect id="Rectangle" fill="#F7F9FA" x="0" y="0" width="24" height="24" rx="2.4"></rect>
            <g id="file-pdf-regular" transform="translate(8.640000, 7.200000)" fill="#637282" fill-rule="nonzero">
                <path d="M6.935625,1.85076023 L5.3625,0.280701754 C5.19375,0.112280702 4.965,0.0168421053 4.726875,0.0168421053 L0.9,0.0168421053 C0.403125,0.0187134503 0,0.421052632 0,0.916959064 L0,8.70175439 C0,9.19766082 0.403125,9.6 0.9,9.6 L6.3,9.6 C6.796875,9.6 7.2,9.19766082 7.2,8.70175439 L7.2,2.48701754 C7.2,2.24935673 7.104375,2.01918129 6.935625,1.85076023 Z M6.226875,2.41403509 L4.8,2.41403509 L4.8,0.98994152 L6.226875,2.41403509 Z M0.9,8.70175439 L0.9,0.916959064 L3.9,0.916959064 L3.9,2.86315789 C3.9,3.11204678 4.100625,3.3122807 4.35,3.3122807 L6.3,3.3122807 L6.3,8.70175439 L0.9,8.70175439 Z M5.59125,6.01263158 C5.3625,5.78807018 4.71,5.84982456 4.38375,5.89099415 C4.06125,5.69450292 3.845625,5.42315789 3.69375,5.0245614 C3.766875,4.72327485 3.883125,4.26479532 3.795,3.97660819 C3.71625,3.48631579 3.08625,3.53497076 2.99625,3.86619883 C2.91375,4.16748538 2.98875,4.58666667 3.1275,5.12187135 C2.94,5.56912281 2.660625,6.16982456 2.46375,6.51415205 C2.08875,6.70690058 1.5825,7.00444444 1.5075,7.37871345 C1.445625,7.67438596 1.995,8.41169591 2.934375,6.7948538 C3.354375,6.65637427 3.811875,6.48608187 4.216875,6.41871345 C4.57125,6.60959064 4.985625,6.73684211 5.263125,6.73684211 C5.74125,6.73684211 5.788125,6.20912281 5.59125,6.01263158 Z M1.876875,7.46853801 C1.9725,7.21216374 2.33625,6.91649123 2.446875,6.81356725 C2.090625,7.3805848 1.876875,7.48163743 1.876875,7.46853801 Z M3.406875,3.90175439 C3.545625,3.90175439 3.5325,4.50245614 3.440625,4.66526316 C3.358125,4.4051462 3.36,3.90175439 3.406875,3.90175439 Z M2.949375,6.4580117 C3.13125,6.14175439 3.286875,5.76561404 3.4125,5.43438596 C3.568125,5.71695906 3.766875,5.94339181 3.976875,6.09871345 C3.586875,6.17918129 3.2475,6.34385965 2.949375,6.4580117 Z M5.416875,6.36444444 C5.416875,6.36444444 5.323125,6.47672515 4.7175,6.21847953 C5.375625,6.16982456 5.484375,6.31953216 5.416875,6.36444444 Z" id="Shape"></path>
            </g>
        </g>
    </g>
</svg>