<?xml version="1.0" encoding="UTF-8"?>
<svg width="50px" height="50px" viewBox="0 0 50 50" version="1.1" xmlns="http://www.w3.org/2000/svg" xmlns:xlink="http://www.w3.org/1999/xlink">
    <!-- Generator: Sketch 52.1 (67048) - http://www.bohemiancoding.com/sketch -->
    <title>Untitled 3</title>
    <desc>Created with Sketch.</desc>
    <g id="Page-1" stroke="none" stroke-width="1" fill="none" fill-rule="evenodd">
        <g id="Group-2">
            <g id="Group" fill="#F7F9FA">
                <g id="pdf-24">
                    <rect id="Rectangle" x="0" y="0" width="50" height="50" rx="5"></rect>
                </g>
            </g>
            <g id="file-video-regular" transform="translate(18.000000, 15.000000)" fill="#637282" fill-rule="nonzero">
                <path d="M14.4508203,3.82582031 L11.1741797,0.549179687 C10.822551,0.197548381 10.3456393,2.60029848e-06 9.84835937,-5.32907052e-15 L1.875,-5.32907052e-15 C0.839453125,-5.1209037e-15 0,0.839453125 0,1.875 L0,18.125 C0,19.1605469 0.839453125,20 1.875,20 L13.125,20 C14.1605469,20 15,19.1605469 15,18.125 L15,5.15164062 C14.9999974,4.6543607 14.8024516,4.17744902 14.4508203,3.82582031 Z M12.9733594,5 L10,5 L10,2.02664062 L12.9733594,5 Z M1.875,18.125 L1.875,1.875 L8.125,1.875 L8.125,5.9375 C8.125,6.45527344 8.54472656,6.875 9.0625,6.875 L13.125,6.875 L13.125,18.125 L1.875,18.125 Z M10.8080859,9.87097656 L8.75,11.9286719 L8.75,10.46875 C8.75,10.0372656 8.40023438,9.6875 7.96875,9.6875 L3.90625,9.6875 C3.47476563,9.6875 3.125,10.0372656 3.125,10.46875 L3.125,14.53125 C3.125,14.9627344 3.47476563,15.3125 3.90625,15.3125 L7.96875,15.3125 C8.40023438,15.3125 8.75,14.9627344 8.75,14.53125 L8.75,13.0713281 L10.8080859,15.1289062 C11.199375,15.5202344 11.875,15.2453125 11.875,14.6869531 L11.875,10.3129297 C11.875,9.75390625 11.1988672,9.48015625 10.8080859,9.87097656 Z" id="Shape"></path>
            </g>
        </g>
    </g>
</svg>