<?xml version="1.0" encoding="UTF-8"?>
<svg width="50px" height="50px" viewBox="0 0 50 50" version="1.1" xmlns="http://www.w3.org/2000/svg" xmlns:xlink="http://www.w3.org/1999/xlink">
    <!-- Generator: Sketch 61 (89581) - https://sketch.com -->
    <title>icon</title>
    <desc>Created with Sketch.</desc>
    <g id="Page-1" stroke="none" stroke-width="1" fill="none" fill-rule="evenodd">
        <g id="icon" fill-rule="nonzero">
            <g fill="#E0ECFF" id="Rectangle-path">
                <rect x="0" y="0" width="50" height="50" rx="5"></rect>
            </g>
            <g id="check-double-solid" transform="translate(15.000000, 15.000000)" fill="#1C407F">
                <path d="M19.7280321,6.82893417 L18.181195,5.28209709 C17.8140165,4.91491859 17.220281,4.91491859 16.8570087,5.28209709 L7.50176924,14.6373365 L3.1503134,10.2819745 C2.7831349,9.91479603 2.18939946,9.91479603 1.82612711,10.2819745 L0.275383875,11.8327178 C-0.0917946249,12.1998963 -0.0917946249,12.7936317 0.275383875,13.1608102 L6.83772302,19.7270555 C7.20490152,20.094234 7.79863696,20.094234 8.16190931,19.7270555 L19.7241259,8.15702662 C20.0913044,7.78594196 20.0913044,7.19220652 19.7280321,6.82893417 Z" id="Shape"></path>
                <path d="M7.06037381,10.9694577 C7.30255537,11.2155454 7.70098311,11.2155454 7.94316467,10.9694577 L16.0679655,2.83684453 C16.3101471,2.59075681 16.3101471,2.19623523 16.0679655,1.95405366 L14.3023838,0.184565788 C14.0602022,-0.0615219295 13.6617745,-0.0615219295 13.4195929,0.184565788 L7.50176924,6.10238948 L5.33775979,3.93447387 C5.09557822,3.68838615 4.69715049,3.68838615 4.45496892,3.93447387 L2.68548105,5.70396175 C2.44329948,5.95004947 2.44329948,6.34457104 2.68548105,6.58675261 L7.06037381,10.9694577 Z" id="Path" opacity="0.509602865"></path>
            </g>
        </g>
    </g>
</svg>