<?xml version="1.0" encoding="UTF-8"?>
<svg width="50px" height="50px" viewBox="0 0 50 50" version="1.1" xmlns="http://www.w3.org/2000/svg" xmlns:xlink="http://www.w3.org/1999/xlink">
    <!-- Generator: Sketch 55.1 (78136) - https://sketchapp.com -->
    <title>icon</title>
    <desc>Created with Sketch.</desc>
    <g id="Page-1" stroke="none" stroke-width="1" fill="none" fill-rule="evenodd">
        <g id="icon" fill-rule="nonzero">
            <rect id="Rectangle-path" fill="#D4F7FF" x="0" y="0" width="50" height="50" rx="5"></rect>
            <path d="M34,17.8571484 L34,19.6428516 C34,21.2165234 29.9687634,22.5 25,22.5 C20.0312366,22.5 16,21.2165234 16,19.6428516 L16,17.8571484 C16,16.2834766 20.0312366,15 25,15 C29.9687634,15 34,16.2834766 34,17.8571484 Z M34,21.875 L34,25.8928516 C34,27.4665234 29.9687634,28.75 25,28.75 C20.0312366,28.75 16,27.4665234 16,25.8928516 L16,21.875 C17.9335938,23.1696484 21.4726429,23.7723438 25,23.7723438 C28.5273571,23.7723438 32.0663661,23.1696484 34,21.875 Z M34,28.125 L34,32.1428516 C34,33.7165234 29.9687634,35 25,35 C20.0312366,35 16,33.7165234 16,32.1428516 L16,28.125 C17.9335938,29.4196484 21.4726429,30.0223438 25,30.0223438 C28.5273571,30.0223438 32.0663661,29.4196484 34,28.125 Z" id="Shape" fill="#0CA8B0"></path>
        </g>
    </g>
</svg>