<?xml version="1.0" encoding="UTF-8"?>
<svg width="50px" height="50px" viewBox="0 0 50 50" version="1.1" xmlns="http://www.w3.org/2000/svg" xmlns:xlink="http://www.w3.org/1999/xlink">
    <!-- Generator: Sketch 50.2 (55047) - http://www.bohemiancoding.com/sketch -->
    <title>icon</title>
    <desc>Created with Sketch.</desc>
    <defs></defs>
    <g id="Page-1" stroke="none" stroke-width="1" fill="none" fill-rule="evenodd">
        <g id="icon" fill-rule="nonzero">
            <g id="Group-4" fill="#D8ECE7">
                <g id="Group-3">
                    <g id="Group-2">
                        <g id="Group">
                            <g id="icon">
                                <rect id="Rectangle-path" x="0" y="0" width="50" height="50" rx="5"></rect>
                            </g>
                        </g>
                    </g>
                </g>
            </g>
            <g id="file-alt-regular-(1)" transform="translate(18.000000, 16.000000)" fill="#008161">
                <path d="M11.25,9.6875 L11.25,10.78125 C11.25,11.0390625 11.0390625,11.25 10.78125,11.25 L4.21875,11.25 C3.9609375,11.25 3.75,11.0390625 3.75,10.78125 L3.75,9.6875 C3.75,9.4296875 3.9609375,9.21875 4.21875,9.21875 L10.78125,9.21875 C11.0390625,9.21875 11.25,9.4296875 11.25,9.6875 Z M10.78125,12.5 L4.21875,12.5 C3.9609375,12.5 3.75,12.7109375 3.75,12.96875 L3.75,14.0625 C3.75,14.3203125 3.9609375,14.53125 4.21875,14.53125 L10.78125,14.53125 C11.0390625,14.53125 11.25,14.3203125 11.25,14.0625 L11.25,12.96875 C11.25,12.7109375 11.0390625,12.5 10.78125,12.5 Z M15,5.15234375 L15,18.125 C15,19.1601562 14.1601562,20 13.125,20 L1.875,20 C0.83984375,20 0,19.1601562 0,18.125 L0,1.875 C0,0.83984375 0.83984375,0 1.875,0 L9.84765625,0 C10.34375,0 10.8203125,0.19921875 11.171875,0.55078125 L14.4492188,3.828125 C14.8007812,4.17578125 15,4.65625 15,5.15234375 Z M10,2.02734375 L10,5 L12.9726562,5 L10,2.02734375 Z M13.125,18.125 L13.125,6.875 L9.0625,6.875 C8.54296875,6.875 8.125,6.45703125 8.125,5.9375 L8.125,1.875 L1.875,1.875 L1.875,18.125 L13.125,18.125 Z" id="Shape"></path>
            </g>
        </g>
    </g>
</svg>