<?xml version="1.0" encoding="UTF-8"?>
<svg width="50px" height="50px" viewBox="0 0 50 50" version="1.1" xmlns="http://www.w3.org/2000/svg" xmlns:xlink="http://www.w3.org/1999/xlink">
    <!-- Generator: Sketch 50.2 (55047) - http://www.bohemiancoding.com/sketch -->
    <title>icon</title>
    <desc>Created with Sketch.</desc>
    <defs></defs>
    <g id="Page-1" stroke="none" stroke-width="1" fill="none" fill-rule="evenodd">
        <g id="icon" fill-rule="nonzero">
            <rect id="Rectangle-path" fill="#E4E8F0" x="0" y="0" width="50" height="50" rx="5"></rect>
            <g id="Group" transform="translate(13.000000, 14.000000)" fill="#575967">
                <g id="Group-2">
                    <path d="M25.6216216,1.55431223e-15 L13.5135135,1.55431223e-15 C12.681081,1.55431223e-15 12.0075675,0.69230769 12.0075675,1.53846154 L12,15.3846154 L15.027027,12.3076923 L25.6216216,12.3076923 C26.454054,12.3076923 27.1351351,11.6153846 27.1351351,10.7692308 L27.1351351,1.53846154 C27.1351351,0.69230769 26.454054,0 25.6216216,1.55431223e-15 Z M16.5405405,6.92307692 C16.1225953,6.92307692 15.7837837,6.58164244 15.7837837,6.17187353 L15.7837837,6.13581877 C15.7837837,5.7209406 16.1196815,5.38461538 16.5405405,5.38461538 C16.9584857,5.38461538 17.2972973,5.72604986 17.2972973,6.13581877 L17.2972973,6.17187353 C17.2972973,6.58675171 16.9613996,6.92307692 16.5405405,6.92307692 Z M19.5675675,6.92307692 C19.1496223,6.92307692 18.8108108,6.58164244 18.8108108,6.17187353 L18.8108108,6.13581877 C18.8108108,5.7209406 19.1467085,5.38461538 19.5675675,5.38461538 C19.9855127,5.38461538 20.3243243,5.72604986 20.3243243,6.13581877 L20.3243243,6.17187353 C20.3243243,6.58675171 19.9884266,6.92307692 19.5675675,6.92307692 Z M22.5945946,6.92307692 C22.1766493,6.92307692 21.8378378,6.58164244 21.8378378,6.17187353 L21.8378378,6.13581877 C21.8378378,5.7209406 22.1737355,5.38461538 22.5945946,5.38461538 C23.0125398,5.38461538 23.3513513,5.72604986 23.3513513,6.13581877 L23.3513513,6.17187353 C23.3513513,6.58675171 23.0154536,6.92307692 22.5945946,6.92307692 Z" id="Shape"></path>
                    <g id="user-alt-solid" transform="translate(0.000000, 8.000000)">
                        <path d="M7,7.875 C9.17382812,7.875 10.9375,6.11132812 10.9375,3.9375 C10.9375,1.76367188 9.17382812,0 7,0 C4.82617188,0 3.0625,1.76367188 3.0625,3.9375 C3.0625,6.11132812 4.82617188,7.875 7,7.875 Z M10.5,8.75 L8.99335937,8.75 C8.38632813,9.02890625 7.7109375,9.1875 7,9.1875 C6.2890625,9.1875 5.61640625,9.02890625 5.00664062,8.75 L3.5,8.75 C1.56679687,8.75 0,10.3167969 0,12.25 L0,12.6875 C0,13.4121094 0.587890625,14 1.3125,14 L12.6875,14 C13.4121094,14 14,13.4121094 14,12.6875 L14,12.25 C14,10.3167969 12.4332031,8.75 10.5,8.75 Z" id="Shape"></path>
                    </g>
                </g>
            </g>
        </g>
    </g>
</svg>