<?xml version="1.0" encoding="UTF-8"?>
<svg width="512px" height="512px" viewBox="0 0 512 512" version="1.1" xmlns="http://www.w3.org/2000/svg" xmlns:xlink="http://www.w3.org/1999/xlink">
    <!-- Generator: Sketch 52.3 (67297) - http://www.bohemiancoding.com/sketch -->
    <title>drag-error</title>
    <desc>Created with Sketch.</desc>
    <g id="Page-1" stroke="none" stroke-width="1" fill="none" fill-rule="evenodd">
        <g id="drag-error" fill="#E32F45">
            <path d="M458.667,192 L352,192 C346.112,192 341.333,196.779 341.333,202.667 C341.333,208.555 346.112,213.334 352,213.334 L458.667,213.334 C476.31,213.334 490.667,227.691 490.667,245.334 L490.667,458.667 C490.667,476.31 476.31,490.667 458.667,490.667 L245.333,490.667 C227.69,490.667 213.333,476.31 213.333,458.667 L213.333,373.334 C213.333,367.446 208.554,362.667 202.666,362.667 C196.778,362.667 192,367.445 192,373.333 L192,458.666 C192,488.064 215.936,512 245.333,512 L458.666,512 C488.064,512 512,488.064 512,458.667 L512,245.333 C512,215.936 488.064,192 458.667,192 Z" id="Path"></path>
            <path d="M160,298.667 L149.333,298.667 C143.445,298.667 138.666,303.446 138.666,309.334 C138.666,315.222 143.445,320 149.333,320 L160,320 C165.888,320 170.667,315.221 170.667,309.333 C170.667,303.445 165.888,298.667 160,298.667 Z" id="Path"></path>
            <path d="M62.741,-1.97215226e-31 L53.333,-1.97215226e-31 C48.235,-1.97215226e-31 43.2,0.725 38.357,2.133 C32.704,3.797 29.461,9.728 31.104,15.381 C32.469,20.032 36.736,23.04 41.344,23.04 C42.347,23.04 43.349,22.912 44.352,22.613 C47.253,21.76 50.261,21.333 53.333,21.333 L62.741,21.333 C68.65,21.333 73.408,16.554 73.408,10.666 C73.408,4.778 68.629,-1.77635684e-15 62.741,-1.97215226e-31 Z" id="Path"></path>
            <path d="M21.333,257.216 L21.333,235.648 C21.333,229.76 16.554,224.981 10.666,224.981 C4.778,224.981 -1.77635684e-15,229.76 -1.77635684e-15,235.648 L-1.77635684e-15,257.216 C-1.77635684e-15,263.104 4.779,267.883 10.667,267.883 C16.555,267.883 21.333,263.104 21.333,257.216 Z" id="Path"></path>
            <path d="M10.667,203.179 C16.555,203.179 21.334,198.4 21.334,192.512 L21.334,170.944 C21.334,165.056 16.555,160.277 10.667,160.277 C4.779,160.277 0,165.056 0,170.944 L0,192.512 C0,198.4 4.779,203.179 10.667,203.179 Z" id="Path"></path>
            <path d="M10.667,73.792 C16.555,73.792 21.334,69.013 21.334,63.125 L21.334,53.333 C21.334,50.368 21.739,47.445 22.529,44.629 C24.129,38.954 20.844,33.066 15.169,31.466 C9.537,29.781 3.606,33.13 2.006,38.826 C0.683,43.541 0,48.427 0,53.333 L0,63.125 C0,69.013 4.779,73.792 10.667,73.792 Z" id="Path"></path>
            <path d="M10.667,138.496 C16.555,138.496 21.334,133.717 21.334,127.829 L21.334,106.261 C21.334,100.373 16.555,95.594 10.667,95.594 C4.779,95.594 0,100.373 0,106.261 L0,127.829 C0,133.717 4.779,138.496 10.667,138.496 Z" id="Path"></path>
            <path d="M44.587,297.451 C39.424,295.979 34.646,293.184 30.806,289.366 C26.646,285.206 19.883,285.249 15.723,289.409 C11.563,293.59 11.584,300.353 15.766,304.492 C22.166,310.871 30.123,315.521 38.763,317.975 C39.744,318.252 40.726,318.38 41.686,318.38 C46.315,318.38 50.603,315.329 51.926,310.636 C53.547,304.96 50.261,299.051 44.587,297.451 Z" id="Path"></path>
            <path d="M307.605,51.968 C308.586,51.968 309.589,51.84 310.592,51.52 C316.245,49.856 319.509,43.947 317.845,38.293 C315.328,29.674 310.592,21.76 304.17,15.402 C299.989,11.263 293.226,11.285 289.087,15.487 C284.948,19.668 284.991,26.431 289.172,30.57 C293.012,34.41 295.871,39.146 297.364,44.287 C298.731,48.939 302.976,51.968 307.605,51.968 Z" id="Path"></path>
            <path d="M256.832,0 L235.264,0 C229.376,0 224.597,4.779 224.597,10.667 C224.597,16.555 229.376,21.334 235.264,21.334 L256.832,21.334 C262.72,21.334 267.499,16.555 267.499,10.667 C267.499,4.779 262.72,0 256.832,0 Z" id="Path"></path>
            <path d="M106.219,298.667 L84.651,298.667 C78.763,298.667 73.984,303.446 73.984,309.334 C73.984,315.222 78.763,320 84.651,320 L106.219,320 C112.107,320 116.886,315.221 116.886,309.333 C116.886,303.445 112.107,298.667 106.219,298.667 Z" id="Path"></path>
            <path d="M309.333,73.6 C303.445,73.6 298.666,78.379 298.666,84.267 L298.666,105.835 C298.666,111.723 303.445,116.502 309.333,116.502 C315.221,116.502 320,111.723 320,105.835 L320,84.267 C320,78.357 315.221,73.6 309.333,73.6 Z" id="Path"></path>
            <path d="M192.149,0 L170.581,0 C164.672,0 159.914,4.779 159.914,10.667 C159.914,16.555 164.693,21.334 170.581,21.334 L192.128,21.334 C198.037,21.334 202.816,16.555 202.816,10.667 C202.816,4.779 198.037,0 192.149,0 Z" id="Path"></path>
            <path d="M127.445,0 L105.877,0 C99.989,0 95.21,4.779 95.21,10.667 C95.21,16.555 99.989,21.334 105.877,21.334 L127.445,21.334 C133.333,21.334 138.112,16.555 138.112,10.667 C138.112,4.779 133.333,0 127.445,0 Z" id="Path"></path>
            <path d="M309.333,138.667 C303.445,138.667 298.666,143.446 298.666,149.334 L298.666,160 C298.666,165.888 303.445,170.667 309.333,170.667 C315.221,170.667 320,165.888 320,160 L320,149.333 C320,143.445 315.221,138.667 309.333,138.667 Z" id="Path"></path>
            <path d="M349.952,185.515 L316.885,152.448 C303.914,139.477 282.773,139.477 269.802,152.448 C265.919,156.331 263.189,160.96 261.631,165.867 C250.004,161.814 236.095,164.822 227.135,173.782 C222.25,178.667 219.22,184.705 218.004,191.019 C207.828,189.59 197.204,193.046 189.801,200.448 C182.718,207.531 179.497,217.024 180.137,226.304 C172.948,227.285 166.313,230.549 161.108,235.755 C154.815,242.048 151.359,250.411 151.359,259.307 C151.359,268.203 154.815,276.587 161.108,282.859 L170.665,292.416 L170.665,330.667 C170.667,360.064 194.603,384 224,384 L267.733,384 C331.84,384 384,331.84 384,267.733 C384,236.693 371.904,207.488 349.952,185.515 Z M267.733,362.667 L224,362.667 C206.357,362.667 192,348.31 192,330.667 L192,313.75 L216.469,338.219 C220.629,342.379 227.392,342.379 231.552,338.219 C233.621,336.128 234.667,333.398 234.667,330.667 C234.667,327.936 233.622,325.206 231.552,323.115 L176.192,267.755 C173.931,265.515 172.693,262.486 172.693,259.307 C172.693,256.128 173.93,253.12 176.192,250.859 C180.715,246.336 188.587,246.336 193.109,250.859 L216.469,274.219 C220.629,278.379 227.392,278.379 231.552,274.219 C233.621,272.128 234.667,269.398 234.667,266.667 C234.667,263.936 233.622,261.206 231.552,259.136 L204.885,232.469 C200.213,227.797 200.213,220.224 204.885,215.552 C209.408,211.029 217.28,211.029 221.802,215.552 L237.802,231.552 C241.962,235.712 248.725,235.712 252.885,231.552 C254.954,229.461 256,226.731 256,224 C256,221.269 254.955,218.539 252.885,216.469 L242.218,205.802 C237.546,201.13 237.546,193.557 242.218,188.885 C246.741,184.362 254.613,184.362 259.135,188.885 L269.802,199.552 C273.962,203.712 280.725,203.712 284.885,199.552 C286.954,197.461 288,194.731 288,192 C288,189.269 286.955,186.539 284.864,184.448 C282.603,182.208 281.365,179.2 281.365,176 C281.365,172.8 282.624,169.792 284.885,167.552 C289.557,162.88 297.13,162.88 301.802,167.552 L334.869,200.619 C352.789,218.539 362.666,242.39 362.666,267.734 C362.667,320.085 320.085,362.667 267.733,362.667 Z" id="Shape" fill-rule="nonzero"></path>
        </g>
    </g>
</svg>