<?xml version="1.0" encoding="UTF-8"?>
<svg width="50px" height="50px" viewBox="0 0 50 50" version="1.1" xmlns="http://www.w3.org/2000/svg" xmlns:xlink="http://www.w3.org/1999/xlink">
    <!-- Generator: Sketch 50.2 (55047) - http://www.bohemiancoding.com/sketch -->
    <title>icon</title>
    <desc>Created with Sketch.</desc>
    <defs></defs>
    <g id="Page-1" stroke="none" stroke-width="1" fill="none" fill-rule="evenodd">
        <g id="icon" fill-rule="nonzero">
            <rect id="Rectangle-path" fill="#F5F7FF" x="0" y="0" width="50" height="50" rx="5"></rect>
            <path d="M27.7583008,22.2277388 C30.092168,24.5594737 30.0601367,28.2978363 27.7723633,30.5938207 C27.7680664,30.598499 27.7629883,30.6035673 27.7583008,30.6082456 L25.1333008,33.2281287 C22.8180664,35.5388499 19.0513086,35.538538 16.7364258,33.2281287 C14.4211914,30.9177973 14.4211914,27.1579532 16.7364258,24.8476218 L18.1858789,23.4009942 C18.5702539,23.0173684 19.232207,23.2723392 19.2520508,23.8144834 C19.2773633,24.5053996 19.4015039,25.1995517 19.6305664,25.869883 C19.7081445,26.0968616 19.6527148,26.3479337 19.482793,26.5175244 L18.971582,27.0277388 C17.8768164,28.1203704 17.8424805,29.8994737 18.9264648,31.0027875 C20.0211523,32.1169786 21.8204492,32.1236062 22.9235352,31.0226706 L25.5485352,28.4031774 C26.6497461,27.3041131 26.6451367,25.5276608 25.5485352,24.4331969 C25.4039648,24.2891813 25.2583398,24.1772905 25.1445898,24.0991228 C24.9814179,23.9872911 24.8808023,23.8050702 24.8732227,23.6076608 C24.8577539,23.195692 25.0040039,22.7711696 25.3301758,22.4456335 L26.1525977,21.6247758 C26.3682617,21.4095322 26.706582,21.3830994 26.9566602,21.5572905 C27.2430541,21.7568809 27.5113015,21.9812284 27.7583008,22.2277388 Z M33.2635742,16.732924 C30.9486914,14.4225146 27.1819336,14.4222027 24.8666992,16.732924 L22.2416992,19.352807 C22.2370117,19.3574854 22.2319336,19.3625536 22.2276367,19.367232 C19.9399023,21.6632164 19.907832,25.4015789 22.2416992,27.7333138 C22.4886839,27.9798131 22.7569185,28.2041478 23.0433008,28.4037232 C23.2933789,28.5779142 23.6317383,28.5514425 23.8473633,28.3362378 L24.6697852,27.5153801 C24.995957,27.1898441 25.142207,26.7653216 25.1267383,26.3533528 C25.1191587,26.1559434 25.018543,25.9737225 24.8553711,25.8618908 C24.7416211,25.7837232 24.5959961,25.6718324 24.4514258,25.5278168 C23.3548242,24.4333528 23.3502148,22.6569006 24.4514258,21.5578363 L27.0764258,18.9383431 C28.1795117,17.8374074 29.9787695,17.8440351 31.0734961,18.9582261 C32.1574805,20.06154 32.1231836,21.8406433 31.0283789,22.9332749 L30.517168,23.4434893 C30.3472461,23.6130799 30.2918164,23.8641521 30.3693945,24.0911306 C30.598457,24.761462 30.7225977,25.455614 30.7479102,26.1465302 C30.767793,26.6886745 31.429707,26.9436452 31.814082,26.5600195 L33.2635352,25.1133918 C35.5788086,22.8030994 35.5788086,19.0432554 33.2635742,16.732924 Z" id="Shape" fill="#4282FF"></path>
        </g>
    </g>
</svg>