<?xml version="1.0" encoding="UTF-8"?>
<svg width="50px" height="50px" viewBox="0 0 50 50" version="1.1" xmlns="http://www.w3.org/2000/svg" xmlns:xlink="http://www.w3.org/1999/xlink">
    <!-- Generator: Sketch 55.1 (78136) - https://sketchapp.com -->
    <title>icon</title>
    <desc>Created with Sketch.</desc>
    <g id="Page-1" stroke="none" stroke-width="1" fill="none" fill-rule="evenodd">
        <g id="icon" fill-rule="nonzero">
            <rect id="Rectangle-path" fill="#DDEBFF" x="0" y="0" width="50" height="50" rx="5"></rect>
            <g id="graduation-cap-solid" transform="translate(12.000000, 17.000000)" fill="#002FFF">
                <path d="M25.2824581,3.71674664 L13.9504764,0.14593655 C13.332974,-0.0486455167 12.6667214,-0.0486455167 12.0496252,0.14593655 L0.717237176,3.71674664 C-0.239079059,4.01799468 -0.239079059,5.31506957 0.717237176,5.61631761 L2.69283864,6.23881356 C2.2593682,6.78839332 1.99286716,7.45880562 1.96646081,8.19296753 C1.57524053,8.42296598 1.29980195,8.8379633 1.29980195,9.33337676 C1.29980195,9.78254048 1.53055285,10.1604547 1.86286665,10.4021198 L0.825706354,15.1887553 C0.735518498,15.6050026 1.0442697,16 1.45986508,16 L3.73934273,16 C4.15534435,16 4.46409556,15.6050026 4.3739077,15.1887553 L3.33674741,10.4021198 C3.6690612,10.1604547 3.8998121,9.78254048 3.8998121,9.33337676 C3.8998121,8.85129654 3.63696733,8.44796583 3.26362212,8.2138007 C3.29449724,7.58797145 3.60649846,7.03464172 4.10415665,6.68381067 L12.0492189,9.18754433 C12.4172828,9.30337695 13.1233481,9.44795931 13.9500701,9.18754433 L25.2824581,5.61673427 C26.2391806,5.31506957 26.2391806,4.01841134 25.2824581,3.71674664 Z M14.3319466,10.4621194 C13.1729108,10.827117 12.1853132,10.6254516 11.6673424,10.4621194 L5.77588193,8.6058815 L5.19981718,13.3333508 C5.19981718,14.8062578 8.69195582,16 12.9998477,16 C17.3077394,16 20.7998781,14.8062578 20.7998781,13.3333508 L20.2238134,8.60546479 L14.3319466,10.4621194 Z" id="Shape"></path>
            </g>
        </g>
    </g>
</svg>