<?xml version="1.0" encoding="UTF-8"?>
<svg width="50px" height="50px" viewBox="0 0 50 50" version="1.1" xmlns="http://www.w3.org/2000/svg" xmlns:xlink="http://www.w3.org/1999/xlink">
    <!-- Generator: Sketch 50.2 (55047) - http://www.bohemiancoding.com/sketch -->
    <title>Group</title>
    <desc>Created with Sketch.</desc>
    <defs></defs>
    <g id="Page-1" stroke="none" stroke-width="1" fill="none" fill-rule="evenodd">
        <g id="Group" fill-rule="nonzero">
            <g id="icon" fill="#F6F2F2">
                <rect id="Rectangle-path" x="0" y="0" width="50" height="50" rx="5"></rect>
            </g>
            <g id="pencil-ruler-solid" transform="translate(15.000000, 15.000000)" fill="#4F4E4E">
                <path d="M4.29805447,9.55321637 L9.53463035,4.30721248 L7.81789883,2.5871345 L5.41789883,4.99181287 C5.36009575,5.04984093 5.28163065,5.08245022 5.19980545,5.08245022 C5.11798025,5.08245022 5.03951514,5.04984093 4.98171206,4.99181287 L4.54552529,4.55477583 C4.42490272,4.43391813 4.42490272,4.23820663 4.54552529,4.11773879 L6.94552529,1.71306043 L5.63657588,0.401169591 C5.15447471,-0.081871345 4.37315175,-0.081871345 3.89105058,0.401169591 L0.400389105,3.89863548 C-0.0813229572,4.38167641 -0.0817120623,5.16452242 0.400389105,5.64756335 L4.29805447,9.55321637 Z M19.4136187,4.99961014 C20.1435798,4.26822612 20.1431907,3.08265107 19.4136187,2.35126706 L17.6529183,0.587134503 C16.9229572,-0.144249513 15.7392996,-0.144249513 15.0089494,0.587134503 L13.2182879,2.38089669 L17.6229572,6.79415205 L19.4136187,4.99961014 Z M12.3377432,3.26354776 L0.781322957,14.8409357 L0.0513618677,19.0296296 C-0.0470817121,19.5945419 0.443968872,20.0865497 1.00817121,19.9871345 L5.18910506,19.2526316 L16.7424125,7.67641326 L12.3377432,3.26354776 Z M19.5996109,14.391423 L18.2906615,13.079922 L15.8906615,15.4846004 C15.7700389,15.6054581 15.5747082,15.6054581 15.4544747,15.4846004 L15.0182879,15.0475634 C14.8980545,14.9267057 14.8980545,14.7309942 15.0182879,14.6105263 L17.4182879,12.205848 L15.7007782,10.4849903 L10.4642023,15.7309942 L14.3634241,19.6374269 C14.8455253,20.1204678 15.6268482,20.1204678 16.1089494,19.6374269 L19.5996109,16.1403509 C20.0817121,15.6573099 20.0817121,14.8744639 19.5996109,14.391423 Z" id="Shape"></path>
            </g>
        </g>
    </g>
</svg>