<?xml version="1.0" encoding="UTF-8"?>
<svg width="50px" height="50px" viewBox="0 0 50 50" version="1.1" xmlns="http://www.w3.org/2000/svg" xmlns:xlink="http://www.w3.org/1999/xlink">
    <!-- Generator: Sketch 50.2 (55047) - http://www.bohemiancoding.com/sketch -->
    <title>icon</title>
    <desc>Created with Sketch.</desc>
    <defs></defs>
    <g id="Page-1" stroke="none" stroke-width="1" fill="none" fill-rule="evenodd">
        <g id="icon" fill-rule="nonzero">
            <rect id="Rectangle-path" fill="#F4F4FF" x="0" y="0" width="50" height="50" rx="5"></rect>
            <g id="language-solid" transform="translate(11.000000, 18.000000)" fill="#9090F8">
                <path d="M13.3,14 L1.05,14 C0.47009375,14 0,13.5299062 0,12.95 L0,1.05 C0,0.47009375 0.47009375,0 1.05,0 L13.3,0 L13.3,14 Z M8.020425,10.8227875 C8.08602401,11.0463977 8.29117247,11.2000052 8.52420625,11.2 L9.5244625,11.2 C9.8840875,11.2 10.1372688,10.8465875 10.02155,10.5060813 L7.5079375,3.10996875 C7.43559129,2.8970731 7.23570224,2.75388555 7.01085,2.7538875 L5.58945625,2.7538875 C5.36460832,2.75389897 5.16472628,2.8970815 5.09236875,3.10996875 L2.5787125,10.5060813 C2.46299375,10.8465875 2.716175,11.2 3.0758,11.2 L4.07351875,11.2 C4.30774112,11.1999936 4.51362722,11.0448339 4.578175,10.8196813 L4.9770875,9.428125 L7.61131875,9.428125 L8.020425,10.8227875 Z M6.31194375,4.6794125 C6.31194375,4.6794125 6.50094375,5.60083125 6.65450625,6.13235 L7.12700625,7.77433125 L5.46144375,7.77433125 L5.94575625,6.13235 C6.09931875,5.6007875 6.28831875,4.6794125 6.28831875,4.6794125 L6.31194375,4.6794125 Z M26.95,14 L14.7,14 L14.7,0 L26.95,0 C27.5299062,0 28,0.47009375 28,1.05 L28,12.95 C28,13.5299062 27.5299062,14 26.95,14 Z M25.375,4.025 L22.575,4.025 L22.575,3.325 C22.575,3.03506875 22.3399312,2.8 22.05,2.8 L21.35,2.8 C21.0600687,2.8 20.825,3.03506875 20.825,3.325 L20.825,4.025 L18.025,4.025 C17.7350687,4.025 17.5,4.26006875 17.5,4.55 L17.5,5.25 C17.5,5.53993125 17.7350687,5.775 18.025,5.775 L23.0171375,5.775 C22.7431312,6.40058125 22.294475,7.042525 21.7036312,7.6652625 C21.4166312,7.363475 21.1612625,7.0567 20.9439125,6.74944375 C20.7847062,6.52439375 20.4808187,6.4574125 20.2441312,6.59868125 L19.9256312,6.78881875 L19.6413438,6.958525 C19.3807687,7.1141 19.304775,7.45819375 19.4779375,7.70739375 C19.7432812,8.0892875 20.050975,8.46584375 20.3959875,8.83290625 C20.04065,9.10529375 19.6591937,9.36858125 19.2539812,9.61883125 C19.0124375,9.76801875 18.9310625,10.0806563 19.0718937,10.3271438 L19.4193125,10.9350938 C19.5664,11.192475 19.8977187,11.2774813 20.1502,11.1221688 C20.707225,10.7795625 21.2251812,10.4145125 21.7008312,10.0331875 C22.17845,10.4164813 22.6968437,10.7814 23.2494062,11.1217312 C23.5020187,11.2773062 23.8336,11.1925187 23.980775,10.9349188 L24.328325,10.3266625 C24.4688937,10.0806563 24.3882625,9.7684125 24.1474187,9.61918125 C23.7543018,9.37583604 23.373772,9.1127214 23.0072937,8.83085 C23.9270937,7.84975625 24.5721437,6.80570625 24.8759875,5.7749125 L25.375,5.7749125 C25.6649312,5.7749125 25.9,5.53984375 25.9,5.2499125 L25.9,4.5499125 C25.9,4.26006875 25.6649312,4.025 25.375,4.025 Z" id="Shape"></path>
            </g>
        </g>
    </g>
</svg>