<?xml version="1.0" encoding="UTF-8"?>
<svg width="50px" height="50px" viewBox="0 0 50 50" version="1.1" xmlns="http://www.w3.org/2000/svg" xmlns:xlink="http://www.w3.org/1999/xlink">
    <!-- Generator: Sketch 50.2 (55047) - http://www.bohemiancoding.com/sketch -->
    <title>icon</title>
    <desc>Created with Sketch.</desc>
    <defs></defs>
    <g id="Page-1" stroke="none" stroke-width="1" fill="none" fill-rule="evenodd">
        <g id="icon" fill-rule="nonzero">
            <rect id="Rectangle-path" fill="#ECEFFF" x="0" y="0" width="50" height="50" rx="5"></rect>
            <path d="M31.875,16.875 L28.3333333,16.875 C28.3333333,15.2892578 27.0627604,14 25.5,14 C23.9372396,14 22.6666667,15.2892578 22.6666667,16.875 L19.125,16.875 C17.9518229,16.875 17,17.8408203 17,19.03125 L17,34.84375 C17,36.0341797 17.9518229,37 19.125,37 L31.875,37 C33.0481771,37 34,36.0341797 34,34.84375 L34,19.03125 C34,17.8408203 33.0481771,16.875 31.875,16.875 Z M25.5,15.796875 C26.0888021,15.796875 26.5625,16.2775391 26.5625,16.875 C26.5625,17.4724609 26.0888021,17.953125 25.5,17.953125 C24.9111979,17.953125 24.4375,17.4724609 24.4375,16.875 C24.4375,16.2775391 24.9111979,15.796875 25.5,15.796875 Z M30.865625,26.2097656 L24.5348958,32.5796875 C24.3268229,32.7908203 23.9903646,32.7863281 23.7822917,32.5751953 L20.1255208,28.8332031 C19.9174479,28.6220703 19.921875,28.2806641 20.1299479,28.0695313 L21.3872396,26.8027344 C21.5953125,26.5916016 21.9317708,26.5960938 22.1398438,26.8072266 L24.1763021,28.8916016 L28.8690104,24.1658203 C29.0770833,23.9546875 29.4135417,23.9591797 29.6216146,24.1703125 L30.8700521,25.4460938 C31.078125,25.6617188 31.0736979,25.9986328 30.865625,26.2097656 Z" id="Shape" fill="#2D59D2"></path>
        </g>
    </g>
</svg>