<?xml version="1.0" encoding="UTF-8"?>
<svg width="50px" height="50px" viewBox="0 0 50 50" version="1.1" xmlns="http://www.w3.org/2000/svg" xmlns:xlink="http://www.w3.org/1999/xlink">
    <!-- Generator: Sketch 58 (84663) - https://sketch.com -->
    <title>icon</title>
    <desc>Created with Sketch.</desc>
    <g id="Page-1" stroke="none" stroke-width="1" fill="none" fill-rule="evenodd">
        <g id="icon" fill-rule="nonzero">
            <rect id="Rectangle-path" fill="#EFF0FF" x="0" y="0" width="50" height="50" rx="5"></rect>
            <g id="tasks-solid" transform="translate(14.000000, 17.000000)" fill="#9097FD">
                <g id="users-solid">
                    <path d="M3.45,6.9 C4.71859375,6.9 5.75,5.86859375 5.75,4.6 C5.75,3.33140625 4.71859375,2.3 3.45,2.3 C2.18140625,2.3 1.15,3.33140625 1.15,4.6 C1.15,5.86859375 2.18140625,6.9 3.45,6.9 Z M19.55,6.9 C20.8185937,6.9 21.85,5.86859375 21.85,4.6 C21.85,3.33140625 20.8185937,2.3 19.55,2.3 C18.2814062,2.3 17.25,3.33140625 17.25,4.6 C17.25,5.86859375 18.2814062,6.9 19.55,6.9 Z M20.7,8.05 L18.4,8.05 C17.7675,8.05 17.1960937,8.30515625 16.7792187,8.7184375 C18.2275,9.51265625 19.2553125,10.9465625 19.478125,12.65 L21.85,12.65 C22.4860937,12.65 23,12.1360937 23,11.5 L23,10.35 C23,9.08140625 21.9685937,8.05 20.7,8.05 Z M11.5,8.05 C13.7245312,8.05 15.525,6.24953125 15.525,4.025 C15.525,1.80046875 13.7245312,0 11.5,0 C9.27546875,0 7.475,1.80046875 7.475,4.025 C7.475,6.24953125 9.27546875,8.05 11.5,8.05 Z M14.26,9.2 L13.9617187,9.2 C13.2142187,9.559375 12.3840625,9.775 11.5,9.775 C10.6159375,9.775 9.789375,9.559375 9.03828125,9.2 L8.74,9.2 C6.454375,9.2 4.6,11.054375 4.6,13.34 L4.6,14.375 C4.6,15.3273437 5.37265625,16.1 6.325,16.1 L16.675,16.1 C17.6273438,16.1 18.4,15.3273437 18.4,14.375 L18.4,13.34 C18.4,11.054375 16.545625,9.2 14.26,9.2 Z M6.22078125,8.7184375 C5.80390625,8.30515625 5.2325,8.05 4.6,8.05 L2.3,8.05 C1.03140625,8.05 0,9.08140625 0,10.35 L0,11.5 C0,12.1360937 0.51390625,12.65 1.15,12.65 L3.51828125,12.65 C3.7446875,10.9465625 4.7725,9.51265625 6.22078125,8.7184375 Z" id="Shape"></path>
                </g>
            </g>
        </g>
    </g>
</svg>