<?xml version="1.0" encoding="UTF-8"?>
<svg width="50px" height="50px" viewBox="0 0 50 50" version="1.1" xmlns="http://www.w3.org/2000/svg" xmlns:xlink="http://www.w3.org/1999/xlink">
    <!-- Generator: Sketch 61.2 (89653) - https://sketch.com -->
    <title>Group 4</title>
    <desc>Created with Sketch.</desc>
    <g id="Page-1" stroke="none" stroke-width="1" fill="none" fill-rule="evenodd">
        <g id="Group" transform="translate(-234.000000, 0.000000)" fill-rule="nonzero">
            <g id="icon">
                <g id="Group-3">
                    <g>
                        <g id="Group-4" transform="translate(234.000000, 0.000000)">
                            <rect id="Rectangle-path" fill="#282828" x="0" y="0" width="50" height="50" rx="5"></rect>
                            <path d="M22.9696875,21.1765625 C23.165,21.371875 23.4815625,21.371875 23.676875,21.1765625 L24.0303125,20.823125 C24.225625,20.6278125 24.225625,20.31125 24.0303125,20.1159375 L22.9140625,19 L24.03,17.88375 C24.2253125,17.6884375 24.2253125,17.371875 24.03,17.1765625 L23.6765625,16.823125 C23.48125,16.6278125 23.1646875,16.6278125 22.969375,16.823125 L21.14625,18.64625 C20.9509375,18.8415625 20.9509375,19.158125 21.14625,19.3534375 L22.9696875,21.1765625 L22.9696875,21.1765625 Z M25.97,20.8234375 L26.3234375,21.176875 C26.51875,21.3721875 26.8353125,21.3721875 27.030625,21.176875 L28.85375,19.35375 C29.0490625,19.1584375 29.0490625,18.841875 28.85375,18.6465625 L27.030625,16.8234375 C26.8353125,16.628125 26.51875,16.628125 26.3234375,16.8234375 L25.97,17.176875 C25.7746875,17.3721875 25.7746875,17.68875 25.97,17.8840625 L27.0859375,19 L25.97,20.11625 C25.7746875,20.3115625 25.7746875,20.628125 25.97,20.8234375 L25.97,20.8234375 Z M34.5,26 L26.923125,26 C26.9,26.6190625 26.4634375,27 25.9,27 L24,27 C23.4159375,27 22.968125,26.4540625 22.9759375,26 L15.5,26 C15.225,26 15,26.225 15,26.5 L15,27 C15,28.1 15.9,29 17,29 L33,29 C34.1,29 35,28.1 35,27 L35,26.5 C35,26.225 34.775,26 34.5,26 Z M33,14.5 C33,13.675 32.325,13 31.5,13 L18.5,13 C17.675,13 17,13.675 17,14.5 L17,25 L33,25 L33,14.5 Z M31,23 L19,23 L19,15 L31,15 L31,23 Z" id="Shape" fill="#FFFFFF"></path>
                            <path d="M20.348,37.39 L22.238,31.09 L20.96,31.09 L19.718,35.707 L19.673,35.707 L18.377,31.09 L17,31.09 L18.944,37.39 L20.348,37.39 Z M24.209,37.39 L24.209,35.221 C24.239,35.227 24.2885,35.233 24.3575,35.239 C24.4265,35.245 24.497,35.2495 24.569,35.2525 C24.641,35.2555 24.71,35.257 24.776,35.257 L24.776,35.257 L24.92,35.257 C25.232,35.257 25.5335,35.2165 25.8245,35.1355 C26.1155,35.0545 26.375,34.9255 26.603,34.7485 C26.831,34.5715 27.014,34.3465 27.152,34.0735 C27.29,33.8005 27.359,33.472 27.359,33.088 C27.359,32.65 27.2795,32.2945 27.1205,32.0215 C26.9615,31.7485 26.756,31.5355 26.504,31.3825 C26.252,31.2295 25.9685,31.1275 25.6535,31.0765 C25.3385,31.0255 25.025,31 24.713,31 C24.413,31 24.1115,31.0135 23.8085,31.0405 C23.5055,31.0675 23.228,31.105 22.976,31.153 L22.976,31.153 L22.976,37.39 L24.209,37.39 Z M24.74,34.186 L24.6275,34.186 C24.5765,34.186 24.524,34.1845 24.47,34.1815 C24.416,34.1785 24.365,34.174 24.317,34.168 C24.269,34.162 24.233,34.156 24.209,34.15 L24.209,34.15 L24.209,32.107 C24.275,32.095 24.362,32.0845 24.47,32.0755 C24.578,32.0665 24.692,32.062 24.812,32.062 C24.968,32.062 25.121,32.077 25.271,32.107 C25.421,32.137 25.5545,32.191 25.6715,32.269 C25.7885,32.347 25.883,32.4505 25.955,32.5795 C26.027,32.7085 26.063,32.872 26.063,33.07 C26.063,33.304 26.0255,33.493 25.9505,33.637 C25.8755,33.781 25.775,33.8935 25.649,33.9745 C25.523,34.0555 25.3805,34.111 25.2215,34.141 C25.0625,34.171 24.902,34.186 24.74,34.186 L24.74,34.186 Z M32.561,37.39 L32.561,34.825 L31.445,34.825 L31.445,36.292 L29.654,36.292 L29.654,31.09 L28.421,31.09 L28.421,37.39 L32.561,37.39 Z" id="VPL" fill="#FFFFFF"></path>
                        </g>
                    </g>
                </g>
            </g>
        </g>
    </g>
</svg>