<?xml version="1.0" encoding="UTF-8"?>
<svg width="50px" height="50px" viewBox="0 0 50 50" version="1.1" xmlns="http://www.w3.org/2000/svg" xmlns:xlink="http://www.w3.org/1999/xlink">
    <!-- Generator: Sketch 50.2 (55047) - http://www.bohemiancoding.com/sketch -->
    <title>icon</title>
    <desc>Created with Sketch.</desc>
    <defs></defs>
    <g id="Page-1" stroke="none" stroke-width="1" fill="none" fill-rule="evenodd">
        <g id="icon" fill-rule="nonzero">
            <rect id="Rectangle-path" fill="#FFE0E0" x="0" y="0" width="50" height="50" rx="5"></rect>
            <path d="M33,15 L17,15 C15.9,15 15.01,15.9 15.01,17 L15,35 L19,31 L33,31 C34.1,31 35,30.1 35,29 L35,17 C35,15.9 34.1,15 33,15 Z M21,24 C20.4477153,24 20,23.5561352 20,23 C20,22.4477153 20.4438648,22 21,22 C21.5522847,22 22,22.4438648 22,23 C22,23.5522847 21.5561352,24 21,24 Z M25,24 C24.4477153,24 24,23.5561352 24,23 C24,22.4477153 24.4438648,22 25,22 C25.5522847,22 26,22.4438648 26,23 C26,23.5522847 25.5561352,24 25,24 Z M29,24 C28.4477153,24 28,23.5561352 28,23 C28,22.4477153 28.4438648,22 29,22 C29.5522847,22 30,22.4438648 30,23 C30,23.5522847 29.5561352,24 29,24 Z" id="Shape" fill="#F89090" transform="translate(25.000000, 25.000000) scale(-1, 1) translate(-25.000000, -25.000000) "></path>
        </g>
    </g>
</svg>