<?xml version="1.0" encoding="UTF-8"?>
<svg width="50px" height="50px" viewBox="0 0 50 50" version="1.1" xmlns="http://www.w3.org/2000/svg" xmlns:xlink="http://www.w3.org/1999/xlink">
    <!-- Generator: Sketch 55.1 (78136) - https://sketchapp.com -->
    <title>icon</title>
    <desc>Created with Sketch.</desc>
    <g id="Page-1" stroke="none" stroke-width="1" fill="none" fill-rule="evenodd">
        <g id="icon" fill-rule="nonzero">
            <rect id="Rectangle-path" fill="#FFDFE4" x="0" y="0" width="50" height="50" rx="5"></rect>
            <g id="tasks-solid" transform="translate(13.000000, 15.000000)" fill="#EA536B">
                <path d="M9.77777778,4.65437788 L23.251462,4.65437788 C23.6631579,4.65437788 24,4.32258065 24,3.91705069 L24,2.07373272 C24,1.66820276 23.6631579,1.33640553 23.251462,1.33640553 L9.77777778,1.33640553 C9.36608187,1.33640553 9.02923977,1.66820276 9.02923977,2.07373272 L9.02923977,3.91705069 C9.02923977,4.32258065 9.36608187,4.65437788 9.77777778,4.65437788 Z M9.77777778,12.0276498 L23.251462,12.0276498 C23.6631579,12.0276498 24,11.6958525 24,11.2903226 L24,9.44700461 C24,9.04147465 23.6631579,8.70967742 23.251462,8.70967742 L9.77777778,8.70967742 C9.36608187,8.70967742 9.02923977,9.04147465 9.02923977,9.44700461 L9.02923977,11.2903226 C9.02923977,11.6958525 9.36608187,12.0276498 9.77777778,12.0276498 Z M9.77777778,19.4009217 L23.251462,19.4009217 C23.6631579,19.4009217 24,19.0691244 24,18.6635945 L24,16.8202765 C24,16.4147465 23.6631579,16.0829493 23.251462,16.0829493 L9.77777778,16.0829493 C9.36608187,16.0829493 9.02923977,16.4147465 9.02923977,16.8202765 L9.02923977,18.6635945 C9.02923977,19.0691244 9.36608187,19.4009217 9.77777778,19.4009217 Z M3.04093567,15.5299539 C1.80116959,15.5299539 0.767251462,16.5207373 0.767251462,17.7419355 C0.767251462,18.9631336 1.80116959,19.9539171 3.04093567,19.9539171 C4.28070175,19.9539171 5.28654971,18.9631336 5.28654971,17.7419355 C5.28654971,16.5207373 4.28070175,15.5299539 3.04093567,15.5299539 Z M7.36842105,1.75115207 L3.99064327,5.07834101 L3.26081871,5.79723502 C3.04093567,6.01382488 2.65730994,6.01382488 2.4374269,5.79723502 L0.210526316,3.61290323 C-0.00935672515,3.39631336 -0.00935672515,3.04608295 0.210526316,2.82949309 L0.94502924,2.10599078 C1.16491228,1.88940092 1.52046784,1.88940092 1.74035088,2.10599078 L2.80233918,3.12442396 L5.78245614,0.207373272 C6.00233918,-0.00921658986 6.35789474,-0.00921658986 6.57777778,0.207373272 L7.37309942,0.967741935 C7.58830409,1.1843318 7.58830409,1.53456221 7.36842105,1.75115207 Z M7.36842105,9.10599078 L3.99064327,12.4331797 L3.25614035,13.156682 C3.03625731,13.3732719 2.65263158,13.3732719 2.43274854,13.156682 L0.210526316,10.9677419 C-0.00935672515,10.7511521 -0.00935672515,10.4009217 0.210526316,10.1843318 L0.94502924,9.46082949 C1.16491228,9.24423963 1.52046784,9.24423963 1.74035088,9.46082949 L2.80233918,10.4792627 L5.78245614,7.5437788 C6.00233918,7.32718894 6.35789474,7.32718894 6.57777778,7.5437788 L7.37309942,8.32718894 C7.58830409,8.53917051 7.58830409,8.88940092 7.36842105,9.10599078 Z" id="Shape"></path>
            </g>
        </g>
    </g>
</svg>