<?xml version="1.0" encoding="UTF-8"?>
<svg width="50px" height="50px" viewBox="0 0 50 50" version="1.1" xmlns="http://www.w3.org/2000/svg" xmlns:xlink="http://www.w3.org/1999/xlink">
    <!-- Generator: Sketch 50.2 (55047) - http://www.bohemiancoding.com/sketch -->
    <title>icon</title>
    <desc>Created with Sketch.</desc>
    <defs></defs>
    <g id="Page-1" stroke="none" stroke-width="1" fill="none" fill-rule="evenodd">
        <g id="icon" fill-rule="nonzero">
            <g id="Group-5" fill="#FBF69B">
                <g id="Group-4">
                    <g id="Group-3">
                        <g id="Group-2">
                            <g id="Group">
                                <g id="icon">
                                    <rect id="Rectangle-path" x="0" y="0" width="50" height="50" rx="5"></rect>
                                </g>
                            </g>
                        </g>
                    </g>
                </g>
            </g>
            <g id="cube-solid" transform="translate(13.000000, 15.000000)" fill="#87754F">
                <g id="cubes-solid">
                    <path d="M23.8574219,10.6687778 L19.140625,8.899 L19.140625,3.59455556 C19.140625,2.86122222 18.6865234,2.20611111 17.9980469,1.947 L13.1152344,0.113666667 C12.7197266,-0.0378888889 12.2802734,-0.0378888889 11.8798828,0.113666667 L6.99707031,1.947 C6.30859375,2.20611111 5.85449219,2.86122222 5.85449219,3.59455556 L5.85449219,8.899 L1.13769531,10.6687778 C0.454101563,10.9278889 0,11.583 0,12.3163333 L0,17.699 C0,18.3638889 0.375976562,18.975 0.971679688,19.2732222 L5.85449219,21.7176667 C6.34765625,21.967 6.93359375,21.967 7.42675781,21.7176667 L12.5,19.1754444 L17.5732422,21.7176667 C18.0664062,21.967 18.6523438,21.967 19.1455078,21.7176667 L24.0283203,19.2732222 C24.6240234,18.975 25,18.3638889 25,17.699 L25,12.3163333 C25,11.583 24.5458984,10.9278889 23.8574219,10.6687778 Z M17.4804688,8.93811111 L13.3300781,10.4976667 L13.3300781,7.16344444 L17.4804688,5.35455556 L17.4804688,8.93811111 Z M7.51953125,3.52611111 L12.5,1.65855556 L17.4804688,3.52611111 L17.4804688,3.55544444 L12.5,5.57944444 L7.51953125,3.55544444 L7.51953125,3.52611111 Z M11.6210938,17.7576667 L7.47070312,19.8354444 L7.47070312,15.9683333 L11.6210938,14.0714444 L11.6210938,17.7576667 Z M11.6210938,12.2821111 L6.640625,14.3061111 L1.66015625,12.2821111 L1.66015625,12.2527778 L6.640625,10.3852222 L11.6210938,12.2527778 L11.6210938,12.2821111 Z M23.3398438,17.7576667 L19.1894531,19.8354444 L19.1894531,15.9683333 L23.3398438,14.0714444 L23.3398438,17.7576667 Z M23.3398438,12.2821111 L18.359375,14.3061111 L13.3789063,12.2821111 L13.3789063,12.2527778 L18.359375,10.3852222 L23.3398438,12.2527778 L23.3398438,12.2821111 Z" id="Shape"></path>
                </g>
            </g>
        </g>
    </g>
</svg>