<?xml version="1.0" encoding="UTF-8"?>
<svg width="50px" height="50px" viewBox="0 0 50 50" version="1.1" xmlns="http://www.w3.org/2000/svg" xmlns:xlink="http://www.w3.org/1999/xlink">
    <!-- Generator: Sketch 55.1 (78136) - https://sketchapp.com -->
    <title>icon</title>
    <desc>Created with Sketch.</desc>
    <g id="Page-1" stroke="none" stroke-width="1" fill="none" fill-rule="evenodd">
        <g id="icon" fill-rule="nonzero">
            <rect id="Rectangle-path" fill="#E7F6EE" x="0" y="0" width="50" height="50" rx="5"></rect>
            <g id="Group" transform="translate(11.000000, 15.000000)" fill="#449168">
                <path d="M26.4864865,-1.97215226e-31 L14.3783784,-1.97215226e-31 C13.5459459,-1.97215226e-31 12.8724324,0.69230769 12.8724324,1.53846154 L12.8648649,15.3846154 L15.8918919,12.3076923 L26.4864865,12.3076923 C27.3189189,12.3076923 28,11.6153846 28,10.7692308 L28,1.53846154 C28,0.69230769 27.3189189,-1.97215226e-31 26.4864865,-1.97215226e-31 Z M17.4054054,6.92307692 C16.9874602,6.92307692 16.6486486,6.58164244 16.6486486,6.17187353 L16.6486486,6.13581877 C16.6486486,5.7209406 16.9845464,5.38461538 17.4054054,5.38461538 C17.8233506,5.38461538 18.1621622,5.72604986 18.1621622,6.13581877 L18.1621622,6.17187353 C18.1621622,6.58675171 17.8262645,6.92307692 17.4054054,6.92307692 Z M20.4324324,6.92307692 C20.0144872,6.92307692 19.6756757,6.58164244 19.6756757,6.17187353 L19.6756757,6.13581877 C19.6756757,5.7209406 20.0115734,5.38461538 20.4324324,5.38461538 C20.8503776,5.38461538 21.1891892,5.72604986 21.1891892,6.13581877 L21.1891892,6.17187353 C21.1891892,6.58675171 20.8532915,6.92307692 20.4324324,6.92307692 Z M23.4594595,6.92307692 C23.0415142,6.92307692 22.7027027,6.58164244 22.7027027,6.17187353 L22.7027027,6.13581877 C22.7027027,5.7209406 23.0386004,5.38461538 23.4594595,5.38461538 C23.8774047,5.38461538 24.2162162,5.72604986 24.2162162,6.13581877 L24.2162162,6.17187353 C24.2162162,6.58675171 23.8803185,6.92307692 23.4594595,6.92307692 Z" id="Shape"></path>
                <path d="M10.2162162,8.46153846 L1.13513514,8.46153846 C0.51081081,8.46153846 0.00567568,8.98076923 0.00567568,9.61538462 L0,20 L2.27027027,17.6923077 L10.2162162,17.6923077 C10.8405405,17.6923077 11.3513514,17.1730769 11.3513514,16.5384615 L11.3513514,9.61538462 C11.3513514,8.98076923 10.8405405,8.46153846 10.2162162,8.46153846 Z" id="Shape" transform="translate(5.675676, 14.230769) scale(-1, 1) translate(-5.675676, -14.230769) "></path>
            </g>
        </g>
    </g>
</svg>